M48
;GenerationSoftware,Autodesk,EAGLE,9.6.2*%
;CreationDate,2022-02-15T16:17:47Z*%
FMAT,2
ICI,OFF
METRIC,TZ,000.000
T5C0.350
T4C0.813
T3C1.016
T2C1.050
T1C1.200
%
G90
M71
T1
X102612Y17554
X99737Y10682
T2
X99315Y17524
X97444Y13050
T3
X74930Y20320
X74930Y22860
X77470Y20320
X77470Y22860
X80010Y20320
X80010Y22860
T4
X50165Y10160
X47625Y10160
X45085Y10160
X42545Y10160
X40005Y10160
X75565Y34290
X73025Y34290
X70485Y34290
X67945Y34290
X65405Y34290
X62865Y34290
X75565Y10160
X57785Y34290
X55245Y34290
X52705Y34290
X50165Y34290
X47625Y34290
X45085Y34290
X42545Y34290
X40005Y34290
X52705Y10160
X55245Y10160
X51943Y22860
X47117Y22860
X57785Y10160
X60325Y10160
X62865Y10160
X65405Y10160
X67945Y10160
X70485Y10160
X73025Y10160
X60325Y34290
T5
X80010Y25400
X91440Y21590
X99060Y29210
X50800Y17075
X46382Y15184
X57150Y6350
X54390Y8670
X57150Y15240
X41196Y10160
X92489Y33020
X88773Y40513
X101092Y39878
X78740Y11430
X51429Y34931
X79067Y13970
X71120Y13970
X67310Y13970
X56096Y36757
X78740Y12700
X82550Y3810
X81280Y9217
X105305Y20356
X62103Y20447
X72390Y7620
X63373Y20447
X72390Y15240
X69850Y17780
X69850Y21590
X60005Y3399
X64770Y20320
X27940Y25400
X41770Y31613
X46990Y31750
X57178Y29098
X59690Y30358
X66040Y30480
X67087Y23907
X68580Y25400
X64671Y24873
X62230Y23361
X63237Y18867
X71120Y22860
X56803Y24453
X61795Y35995
X74216Y34000
X54371Y16749
X57150Y19050
X61674Y9589
X59846Y19790
X59259Y21690
X72967Y38100
X81280Y42573
X63956Y26489
X69850Y29210
X59134Y10160
X62400Y27940
X52070Y17780
X55880Y13970
X57150Y13970
X57150Y11430
X61087Y10414
X59470Y11650
X58420Y12700
X59846Y15240
X60227Y17145
X70767Y8890
X40640Y13970
X41910Y20320
X41910Y22860
X66040Y7620
X73660Y21590
X60457Y28229
X59472Y27402
X69850Y16510
X71120Y19050
X56241Y19036
X66040Y26794
X97790Y30480
X96520Y27940
X95250Y26670
X86360Y21590
X74930Y25400
X96520Y35560
X78683Y38100
X84913Y38369
X49031Y19549
X50800Y21364
X54181Y20749
X58442Y25322
X67973Y22860
X66471Y21690
X22860Y13970
X40640Y16510
X45720Y16510
X50800Y22860
X54610Y22860
X53932Y18443
X57179Y17243
X63645Y15443
X65884Y16454
X72590Y17835
X71145Y15215
X68580Y16510
X52451Y28575
X53346Y23864
X58385Y22895
X55845Y20355
X54472Y29175
X54610Y26670
X100330Y15240
X100330Y22860
X68635Y18917
X103911Y29279
X90170Y13970
X63944Y18290
X49530Y17075
X49530Y15240
X100330Y41910
X80010Y34290
X105410Y35560
X82550Y9217
X16510Y22860
X33020Y7620
X39116Y10160
X24130Y22860
X27940Y8890
X31750Y7620
X88900Y6350
X20320Y22860
X39370Y2540
X21590Y25400
X41910Y40640
X60960Y6350
X53149Y3562
X101161Y38100
X83267Y33909
X29928Y21831
X29972Y20193
X81607Y25400
X51846Y26670
X45632Y26775
X87630Y11430
X87630Y17835
X31750Y13139
X71120Y21590
X62028Y15071
X60100Y16129
X48974Y34290
X64770Y17272
X55880Y2540
X80010Y17835
X82550Y17835
X85090Y10160
X85090Y7620
X50800Y3562
X43736Y10160
X41910Y17780
X40640Y21825
X44450Y26670
X79372Y21590
X53340Y6350
X35560Y36830
X55880Y5080
X55010Y13554
X73660Y6350
X86360Y6350
X64550Y8670
X63500Y6350
X64503Y11603
X44450Y20320
X82550Y7013
X84468Y6957
X71120Y6128
X64770Y5080
X62046Y5377
X81280Y10160
X82550Y22860
X83820Y24130
X96091Y31321
X61104Y18850
M30