G04 EAGLE Gerber RS-274X export*
G75*
%MOMM*%
%FSLAX34Y34*%
%LPD*%
%INBottom Copper*%
%IPPOS*%
%AMOC8*
5,1,8,0,0,1.08239X$1,22.5*%
G01*
%ADD10P,1.649562X8X22.500000*%
%ADD11C,1.320800*%
%ADD12R,1.750000X0.400000*%
%ADD13R,2.540000X2.540000*%
%ADD14C,1.320800*%
%ADD15C,0.756400*%
%ADD16C,0.152400*%


D10*
X749300Y203200D03*
X749300Y228600D03*
X774700Y203200D03*
X774700Y228600D03*
X800100Y203200D03*
X800100Y228600D03*
D11*
X471170Y228600D03*
X519430Y228600D03*
D12*
G36*
X973368Y145310D02*
X989512Y138558D01*
X987968Y134868D01*
X971824Y141620D01*
X973368Y145310D01*
G37*
G36*
X983402Y169296D02*
X999546Y162544D01*
X998002Y158854D01*
X981858Y165606D01*
X983402Y169296D01*
G37*
G36*
X975877Y151307D02*
X992021Y144555D01*
X990477Y140865D01*
X974333Y147617D01*
X975877Y151307D01*
G37*
G36*
X978385Y157303D02*
X994529Y150551D01*
X992985Y146861D01*
X976841Y153613D01*
X978385Y157303D01*
G37*
G36*
X980894Y163300D02*
X997038Y156548D01*
X995494Y152858D01*
X979350Y159610D01*
X980894Y163300D01*
G37*
D13*
G36*
X1009505Y168730D02*
X1019307Y192162D01*
X1042739Y182360D01*
X1032937Y158928D01*
X1009505Y168730D01*
G37*
G36*
X980755Y100001D02*
X990557Y123433D01*
X1013989Y113631D01*
X1004187Y90199D01*
X980755Y100001D01*
G37*
D14*
X400050Y336296D02*
X400050Y349504D01*
X425450Y349504D02*
X425450Y336296D01*
X450850Y336296D02*
X450850Y349504D01*
X476250Y349504D02*
X476250Y336296D01*
X501650Y336296D02*
X501650Y349504D01*
X527050Y349504D02*
X527050Y336296D01*
X552450Y336296D02*
X552450Y349504D01*
X577850Y349504D02*
X577850Y336296D01*
X603250Y336296D02*
X603250Y349504D01*
X628650Y349504D02*
X628650Y336296D01*
X654050Y336296D02*
X654050Y349504D01*
X679450Y349504D02*
X679450Y336296D01*
X704850Y336296D02*
X704850Y349504D01*
X730250Y349504D02*
X730250Y336296D01*
X755650Y336296D02*
X755650Y349504D01*
X400050Y108204D02*
X400050Y94996D01*
X425450Y94996D02*
X425450Y108204D01*
X450850Y108204D02*
X450850Y94996D01*
X476250Y94996D02*
X476250Y108204D01*
X501650Y108204D02*
X501650Y94996D01*
X527050Y94996D02*
X527050Y108204D01*
X552450Y108204D02*
X552450Y94996D01*
X577850Y94996D02*
X577850Y108204D01*
X603250Y108204D02*
X603250Y94996D01*
X628650Y94996D02*
X628650Y108204D01*
X654050Y108204D02*
X654050Y94996D01*
X679450Y94996D02*
X679450Y108204D01*
X704850Y108204D02*
X704850Y94996D01*
X730250Y94996D02*
X730250Y108204D01*
X755650Y108204D02*
X755650Y94996D01*
D15*
X660400Y76200D03*
D16*
X425999Y316319D02*
X400050Y342900D01*
X425999Y316319D02*
X440763Y208045D01*
X438432Y205714D01*
X438432Y200687D01*
X441987Y197132D01*
X447014Y197132D01*
X450568Y200687D01*
X320775Y151864D02*
X305336Y136425D01*
X305336Y126347D01*
X389999Y41684D01*
X562576Y41684D01*
X450568Y220570D02*
X467488Y237490D01*
X474852Y237490D01*
X407006Y151864D02*
X320775Y151864D01*
X450568Y200687D02*
X450568Y220570D01*
X474852Y237490D02*
X480060Y232282D01*
X480060Y224918D01*
X407006Y151864D01*
X597092Y76200D02*
X660400Y76200D01*
X597092Y76200D02*
X562576Y41684D01*
D15*
X960909Y313209D03*
D16*
X838200Y241300D01*
D15*
X838200Y241300D03*
X825500Y228600D03*
X812800Y101600D03*
D16*
X825500Y186932D02*
X825500Y228600D01*
X825500Y186932D02*
X819432Y180864D01*
X819432Y108232D02*
X812800Y101600D01*
X819432Y108232D02*
X819432Y180864D01*
D15*
X620461Y53769D03*
D16*
X657380Y73180D02*
X660400Y76200D01*
X628932Y66014D02*
X628932Y62240D01*
X620461Y53769D01*
X636099Y73180D02*
X657380Y73180D01*
X636099Y73180D02*
X628932Y66014D01*
D15*
X647700Y50800D03*
X711200Y61282D03*
D16*
X690831Y68790D02*
X689223Y70398D01*
X690831Y68790D02*
X691177Y68519D01*
X694176Y67469D01*
X695182Y65377D01*
X702279Y59810D01*
X711200Y61282D01*
X689223Y70398D02*
X677294Y70398D01*
X657696Y50800D02*
X647700Y50800D01*
X657696Y50800D02*
X677294Y70398D01*
D15*
X844680Y69568D03*
D16*
X825500Y70132D01*
D15*
X825500Y70132D03*
D16*
X444500Y203200D02*
X425450Y342900D01*
D15*
X444500Y203200D03*
X645029Y116026D03*
D16*
X575619Y127000D02*
X558800Y127000D01*
X637711Y116026D02*
X645029Y116026D01*
X581687Y133068D02*
X575619Y127000D01*
X581687Y133068D02*
X620669Y133068D01*
X637711Y116026D01*
D15*
X635000Y63500D03*
X645501Y86701D03*
D16*
X662914Y70132D02*
X666468Y73687D01*
X666468Y78714D01*
X662914Y82268D01*
X641632Y70132D02*
X635000Y63500D01*
X649935Y82268D02*
X645501Y86701D01*
X641632Y70132D02*
X662914Y70132D01*
X662914Y82268D02*
X649935Y82268D01*
D15*
X863600Y63500D03*
X736600Y63500D03*
D16*
X863600Y63500D01*
D15*
X550104Y135544D03*
D16*
X558800Y127000D01*
D15*
X558800Y50800D03*
D16*
X523494Y86106D01*
X510794Y86106D01*
D15*
X355600Y368300D03*
D16*
X444626Y342900D02*
X450850Y342900D01*
X365506Y358394D02*
X355600Y368300D01*
X429132Y358394D02*
X444626Y342900D01*
X429132Y358394D02*
X365506Y358394D01*
D15*
X533400Y63500D03*
D16*
X457074Y101600D02*
X450850Y101600D01*
X510794Y86106D02*
X533400Y63500D01*
X472568Y86106D02*
X457074Y101600D01*
X472568Y86106D02*
X510794Y86106D01*
D15*
X793722Y215900D03*
D16*
X800100Y203200D01*
X444500Y266700D02*
X450850Y342900D01*
D15*
X444500Y266700D03*
X406400Y218254D03*
D16*
X419100Y177800D01*
D15*
X419100Y177800D03*
X437360Y101600D03*
D16*
X450850Y101600D01*
D15*
X508000Y35616D03*
X850900Y76200D03*
D16*
X736792Y76200D01*
D15*
X850900Y101600D03*
D16*
X825500Y178350D01*
D15*
X825500Y178350D03*
X800100Y178350D03*
D16*
X800100Y203200D01*
D15*
X558800Y25400D03*
D16*
X606114Y34162D02*
X615327Y39867D01*
X606114Y34162D02*
X606114Y31476D01*
X602560Y27921D01*
X688805Y66505D02*
X689398Y65912D01*
X688805Y66505D02*
X687960Y67350D01*
X561321Y27921D02*
X558800Y25400D01*
X561321Y27921D02*
X602560Y27921D01*
X615327Y39867D02*
X651073Y39867D01*
X678557Y67350D02*
X687960Y67350D01*
X678557Y67350D02*
X651073Y39867D01*
X716443Y55851D02*
X736792Y76200D01*
X716443Y55851D02*
X716443Y44824D01*
X692743Y63417D01*
X691976Y65009D01*
X689693Y65809D01*
X688805Y66505D01*
X425450Y101600D02*
X419226Y101600D01*
X403732Y117094D01*
X331792Y117094D01*
D15*
X647700Y172720D03*
D16*
X489740Y342900D02*
X476250Y342900D01*
D15*
X489740Y342900D03*
X600996Y161290D03*
D16*
X619467Y151834D01*
X620279Y150708D01*
D15*
X620279Y150708D03*
X711200Y215900D03*
D16*
X701014Y221968D02*
X695987Y221968D01*
X692416Y186653D02*
X688861Y183099D01*
X692416Y218397D02*
X695987Y221968D01*
X692416Y218397D02*
X692416Y186653D01*
X707082Y215900D02*
X711200Y215900D01*
X707082Y215900D02*
X701014Y221968D01*
X688861Y183099D02*
X658079Y183099D01*
X647700Y172720D01*
X331792Y117094D02*
X317500Y131386D01*
D15*
X317500Y131386D03*
X876300Y178350D03*
D16*
X889358Y178350D01*
D15*
X876300Y114300D03*
D16*
X876300Y178350D01*
D15*
X456318Y267751D03*
D16*
X518463Y266698D01*
D15*
X518463Y266698D03*
D16*
X816074Y254000D02*
X889358Y178350D01*
D15*
X816074Y254000D03*
X800100Y254000D03*
D16*
X800100Y228600D01*
D15*
X914400Y215900D03*
D16*
X990600Y292100D01*
D15*
X990600Y292100D03*
X508000Y170754D03*
X463820Y151836D03*
D16*
X492787Y176822D02*
X497814Y176822D01*
X503882Y170754D02*
X508000Y170754D01*
X467801Y151836D02*
X463820Y151836D01*
X497814Y176822D02*
X503882Y170754D01*
X492787Y176822D02*
X467801Y151836D01*
D15*
X571500Y63500D03*
D16*
X543901Y86701D01*
D15*
X543901Y86701D03*
X571500Y152400D03*
D16*
X600996Y161290D01*
D15*
X411960Y101600D03*
D16*
X425450Y101600D01*
D15*
X924895Y330200D03*
D16*
X963423Y319277D02*
X966977Y315723D01*
X966977Y310696D01*
X959132Y276887D02*
X962687Y273332D01*
X967714Y273332D01*
X935817Y319277D02*
X924895Y330200D01*
X986482Y292100D02*
X990600Y292100D01*
X963423Y319277D02*
X935817Y319277D01*
X967714Y273332D02*
X986482Y292100D01*
X966977Y310696D02*
X959132Y302851D01*
X959132Y276887D01*
D15*
X887730Y405130D03*
D16*
X1009368Y419100D02*
X1009368Y421614D01*
X1005814Y425168D01*
X1000787Y425168D01*
X997232Y421614D01*
X997232Y420080D01*
X887730Y379017D01*
X887730Y405130D01*
X1009368Y419100D02*
X1010920Y417548D01*
X1010920Y398780D01*
D15*
X1010920Y398780D03*
D16*
X757024Y373634D02*
X538608Y373634D01*
X757024Y373634D02*
X810006Y320652D01*
X787400Y118419D02*
X787400Y114300D01*
X810006Y141025D02*
X810006Y320652D01*
X810006Y141025D02*
X787400Y118419D01*
D15*
X787400Y114300D03*
D16*
X538608Y373634D02*
X514287Y349313D01*
X501650Y342900D01*
D15*
X514287Y349313D03*
X790674Y139700D03*
D16*
X787654Y338694D02*
X755762Y370586D01*
X787654Y338694D02*
X787654Y142720D01*
X790674Y139700D01*
X755762Y370586D02*
X560960Y370586D01*
X533274Y342900D02*
X527050Y342900D01*
X533274Y342900D02*
X560960Y370586D01*
D15*
X711200Y139700D03*
X673100Y139700D03*
D16*
X694725Y139700D02*
X711200Y139700D01*
X694725Y139700D02*
X688629Y133604D01*
X687489Y133604D01*
X686771Y133174D01*
X685049Y133604D01*
X676570Y139700D02*
X673100Y139700D01*
X682666Y133604D02*
X685049Y133604D01*
X682666Y133604D02*
X676570Y139700D01*
X560960Y367566D02*
X560960Y370586D01*
D15*
X560960Y367566D03*
X787400Y127000D03*
D16*
X784606Y129794D01*
X784606Y337431D02*
X754499Y367538D01*
X558674Y342900D02*
X552450Y342900D01*
X784606Y337431D02*
X784606Y129794D01*
X558674Y342900D02*
X583312Y367538D01*
X754499Y367538D01*
D15*
X825500Y38100D03*
X812800Y92174D03*
D16*
X784887Y108232D02*
X781332Y111787D01*
X781332Y116814D01*
X796742Y108232D02*
X812800Y92174D01*
X796742Y108232D02*
X784887Y108232D01*
X787400Y122882D02*
X787400Y127000D01*
X787400Y122882D02*
X781332Y116814D01*
D15*
X1053046Y203561D03*
D16*
X1045213Y182352D02*
X1034681Y157172D01*
X842518Y55118D02*
X825500Y38100D01*
X1045213Y182352D02*
X1045213Y195729D01*
X1053046Y203561D01*
X1034681Y157172D02*
X1016463Y138955D01*
X1016463Y98976D01*
X972606Y55118D02*
X842518Y55118D01*
X972606Y55118D02*
X1016463Y98976D01*
D15*
X621030Y204470D03*
D16*
X564868Y48287D02*
X561314Y44732D01*
X564868Y48287D02*
X564868Y53314D01*
X322038Y148816D02*
X308384Y135162D01*
X308384Y127610D01*
X577850Y274448D02*
X577850Y342900D01*
X577850Y274448D02*
X452218Y148816D01*
X322038Y148816D01*
X535940Y125264D02*
X535940Y82242D01*
X564868Y53314D01*
X391262Y44732D02*
X308384Y127610D01*
X391262Y44732D02*
X561314Y44732D01*
D15*
X723900Y76200D03*
D16*
X713740Y111886D02*
X708532Y117094D01*
X713740Y86360D02*
X723900Y76200D01*
X713740Y86360D02*
X713740Y111886D01*
X674044Y133632D02*
X670587Y133632D01*
X674044Y133632D02*
X690582Y117094D01*
X708532Y117094D01*
X569281Y178498D02*
X565727Y174943D01*
X565727Y169916D01*
X565751Y169892D01*
X535940Y125264D01*
X596422Y178498D02*
X600357Y182433D01*
X596422Y178498D02*
X569281Y178498D01*
X613557Y182433D02*
X617112Y185987D01*
X617112Y200552D02*
X621030Y204470D01*
X617112Y200552D02*
X617112Y185987D01*
X613557Y182433D02*
X600357Y182433D01*
X663538Y142720D02*
X664229Y142720D01*
X670587Y133632D01*
X614166Y182433D02*
X613557Y182433D01*
X643064Y145979D02*
X663538Y142720D01*
X643064Y145979D02*
X642737Y146213D01*
X642521Y156942D02*
X638967Y160497D01*
X642521Y146522D02*
X643064Y145979D01*
X642521Y146522D02*
X642521Y156942D01*
X638967Y160497D02*
X636102Y160497D01*
X614166Y182433D01*
D15*
X633730Y204470D03*
D16*
X686286Y136437D02*
X686644Y136652D01*
X686286Y136437D02*
X685425Y136652D01*
X684537Y136652D01*
X684242Y136948D01*
X683836Y137049D01*
X683379Y137810D01*
X682752Y138437D01*
X682752Y138856D01*
X719836Y355712D02*
X711058Y364490D01*
X631064Y364490D01*
X686644Y136652D02*
X687367Y136652D01*
X719836Y169121D02*
X719836Y355712D01*
X719836Y169121D02*
X687367Y136652D01*
X634774Y203426D02*
X633730Y204470D01*
X609474Y342900D02*
X603250Y342900D01*
X609474Y342900D02*
X631064Y364490D01*
D15*
X723900Y152400D03*
D16*
X729968Y73687D02*
X726414Y70132D01*
X729968Y73687D02*
X729968Y78714D01*
X721360Y87322D01*
X721360Y149860D01*
X723900Y152400D01*
D15*
X698500Y177800D03*
D16*
X698500Y215900D01*
D15*
X698500Y215900D03*
D16*
X675614Y145768D02*
X679168Y142214D01*
X679168Y142021D01*
X682752Y138437D01*
D15*
X600046Y33989D03*
D16*
X647700Y63500D01*
X651284Y67084D01*
X664176Y67084D01*
X685929Y88837D01*
X698437Y88837D01*
X717142Y70132D01*
X726414Y70132D01*
X622705Y193445D02*
X633730Y204470D01*
X622705Y193445D02*
X622705Y178205D01*
X628350Y180385D02*
X633377Y180385D01*
X636932Y176830D01*
X645569Y158205D02*
X645569Y154531D01*
X647700Y152400D01*
X626170Y178205D02*
X622705Y178205D01*
X626170Y178205D02*
X628350Y180385D01*
X636932Y176830D02*
X636932Y166842D01*
X645569Y158205D01*
X647700Y152400D02*
X675614Y145768D01*
X716788Y354449D02*
X709795Y361442D01*
X716788Y354449D02*
X716788Y323280D01*
X711104Y317596D01*
X634874Y342900D02*
X628650Y342900D01*
X634874Y342900D02*
X653416Y361442D01*
X709795Y361442D01*
D15*
X647700Y203200D03*
X279400Y254000D03*
D16*
X417700Y316133D01*
D15*
X417700Y316133D03*
X469900Y317500D03*
D16*
X571782Y290978D01*
D15*
X571782Y290978D03*
X596900Y303580D03*
D16*
X614714Y321394D01*
X614714Y322337D01*
X634874Y342497D02*
X634874Y342900D01*
X634874Y342497D02*
X614714Y322337D01*
X711104Y317596D02*
X711152Y241300D01*
X655336Y210836D02*
X647700Y203200D01*
X701013Y241300D02*
X711152Y241300D01*
X670550Y210836D02*
X655336Y210836D01*
X670550Y210836D02*
X701013Y241300D01*
X660400Y304800D02*
X654050Y342900D01*
D15*
X660400Y304800D03*
X670869Y239069D03*
D16*
X685800Y254000D01*
D15*
X685800Y254000D03*
D16*
X701168Y358394D02*
X708532Y358394D01*
X713740Y353186D01*
X649732Y254000D02*
X647700Y254000D01*
X679450Y342900D02*
X685674Y342900D01*
X701168Y358394D01*
X713740Y353186D02*
X713740Y324544D01*
X713740Y324543D01*
X708055Y318857D02*
X708056Y317617D01*
X708056Y317500D01*
X708055Y318857D02*
X708055Y318859D01*
X708056Y317500D02*
X706120Y260350D01*
X665157Y261874D02*
X651071Y261874D01*
X649732Y260535D01*
X649732Y254000D01*
X666681Y260350D02*
X706120Y260350D01*
X666681Y260350D02*
X665157Y261874D01*
X708055Y318859D02*
X713740Y324544D01*
X647700Y254000D02*
X646712Y248725D01*
D15*
X646712Y248725D03*
X622300Y233606D03*
D16*
X622300Y256217D02*
X704850Y338767D01*
X622300Y256217D02*
X622300Y233606D01*
X704850Y338767D02*
X704850Y342900D01*
X751968Y358394D02*
X759332Y358394D01*
X764540Y353186D01*
X764540Y238760D02*
X774700Y228600D01*
X764540Y238760D02*
X764540Y353186D01*
X736474Y342900D02*
X730250Y342900D01*
X736474Y342900D02*
X751968Y358394D01*
D15*
X632366Y188671D03*
X711200Y228600D03*
D16*
X640827Y197132D02*
X632366Y188671D01*
X707616Y225016D02*
X711200Y228600D01*
X707616Y225016D02*
X694724Y225016D01*
X666840Y197132D02*
X640827Y197132D01*
X666840Y197132D02*
X694724Y225016D01*
X759206Y224497D02*
X759206Y232703D01*
X749300Y214591D02*
X749300Y203200D01*
X749300Y214591D02*
X759206Y224497D01*
X755650Y236259D02*
X755650Y342900D01*
X755650Y236259D02*
X759206Y232703D01*
D15*
X568033Y244531D03*
X617946Y359954D03*
D16*
X568033Y260320D02*
X568033Y244531D01*
X616386Y358394D02*
X617946Y359954D01*
X616386Y358394D02*
X599568Y358394D01*
X590832Y283119D02*
X568033Y260320D01*
X590832Y283119D02*
X590832Y349658D01*
X599568Y358394D01*
D15*
X742160Y340005D03*
D16*
X755650Y342900D01*
X501650Y125845D02*
X501650Y101600D01*
X501650Y125845D02*
X543714Y167486D01*
D15*
X543714Y167486D03*
D16*
X519430Y134620D02*
X519430Y127000D01*
X519430Y114300D01*
X519430Y109220D01*
X527050Y101600D01*
X519430Y134620D02*
X571500Y186690D01*
X571500Y190500D01*
D15*
X571500Y190500D03*
X616740Y95888D03*
D16*
X558674Y101600D02*
X552450Y101600D01*
X558674Y101600D02*
X574168Y86106D01*
X616714Y95888D02*
X616740Y95888D01*
X606932Y86106D02*
X574168Y86106D01*
X606932Y86106D02*
X616714Y95888D01*
D15*
X598456Y197895D03*
D16*
X592594Y216904D01*
D15*
X592594Y216904D03*
X729674Y381000D03*
D16*
X774406Y425732D01*
X812800Y425732D01*
D15*
X812800Y425732D03*
X639559Y264894D03*
D16*
X666765Y292100D01*
X698500Y292100D01*
D15*
X698500Y292100D03*
D16*
X584200Y101600D02*
X577850Y101600D01*
D15*
X591340Y101600D03*
D16*
X584200Y101600D01*
D15*
X623996Y279400D03*
X520700Y177800D03*
D16*
X615552Y294614D02*
X611998Y298168D01*
X615552Y287844D02*
X623996Y279400D01*
X589915Y247015D02*
X520700Y177800D01*
X615552Y287844D02*
X615552Y294614D01*
D15*
X558800Y139700D03*
D16*
X571500Y139700D01*
D15*
X571500Y139700D03*
X571500Y114300D03*
D16*
X584200Y101600D01*
X600070Y298168D02*
X611998Y298168D01*
X600070Y298168D02*
X599414Y297512D01*
X594212Y297512D01*
X593880Y297180D01*
X593880Y281857D01*
X579120Y266700D01*
X586937Y259287D02*
X590491Y255733D01*
X590491Y250706D01*
X586533Y259287D02*
X579120Y266700D01*
X586533Y259287D02*
X586937Y259287D01*
X590491Y250706D02*
X589915Y250129D01*
X589915Y247015D01*
D15*
X610870Y104140D03*
D16*
X605790Y104140D01*
X603250Y101600D01*
D15*
X594701Y116499D03*
D16*
X599568Y117094D02*
X606932Y117094D01*
X622426Y101600D02*
X628650Y101600D01*
X599568Y117094D02*
X598972Y116499D01*
X594701Y116499D01*
X606932Y117094D02*
X622426Y101600D01*
D15*
X584200Y127000D03*
D16*
X647826Y101600D02*
X654050Y101600D01*
X588633Y122567D02*
X584200Y127000D01*
X626860Y122567D02*
X647826Y101600D01*
X626860Y122567D02*
X588633Y122567D01*
D15*
X598456Y152400D03*
D16*
X654747Y117094D02*
X657732Y117094D01*
X654747Y117094D02*
X598456Y152400D01*
X673226Y101600D02*
X679450Y101600D01*
X673226Y101600D02*
X657732Y117094D01*
X699794Y101600D02*
X704850Y101600D01*
X699794Y101600D02*
X602266Y171450D01*
D15*
X602266Y171450D03*
X707672Y88900D03*
D16*
X704850Y101600D01*
X755650Y101600D02*
X774700Y203200D01*
D15*
X406400Y139700D03*
D16*
X470026Y101600D02*
X476250Y101600D01*
X454532Y117094D02*
X429006Y117094D01*
X406400Y139700D01*
X454532Y117094D02*
X470026Y101600D01*
D15*
X419100Y203200D03*
D16*
X419100Y228600D01*
D15*
X419100Y228600D03*
X611044Y188501D03*
D16*
X611044Y203200D01*
X611044Y213768D01*
X629666Y232391D01*
D15*
X736600Y215900D03*
D16*
X749300Y228600D01*
D15*
X604573Y282288D03*
D16*
X594718Y274019D01*
D15*
X594718Y274019D03*
X698500Y165100D03*
X711200Y190500D03*
D16*
X698500Y169219D02*
X698500Y165100D01*
X698500Y169219D02*
X704568Y175287D01*
X704568Y183868D01*
X711200Y190500D01*
D15*
X562412Y190357D03*
D16*
X600970Y191827D02*
X604524Y195382D01*
X574014Y196568D02*
X568987Y196568D01*
X562775Y190357D02*
X562412Y190357D01*
X562775Y190357D02*
X568987Y196568D01*
X604524Y196680D02*
X611044Y203200D01*
X604524Y196680D02*
X604524Y195382D01*
X600970Y191827D02*
X578754Y191827D01*
X574014Y196568D01*
D15*
X660400Y267942D03*
D16*
X657380Y264922D01*
X649809Y264922D01*
X638887Y254000D02*
X635000Y254000D01*
X638887Y254000D02*
X649809Y264922D01*
D15*
X977900Y304800D03*
D16*
X965200Y279400D01*
D15*
X965200Y279400D03*
X952500Y266700D03*
D16*
X863600Y215900D01*
D15*
X863600Y215900D03*
X749300Y254000D03*
D16*
X749300Y228600D01*
D15*
X965200Y355600D03*
D16*
X977900Y342900D01*
X977900Y304800D01*
D15*
X786832Y381000D03*
D16*
X846437Y381000D01*
X849128Y383691D01*
D15*
X849128Y383691D03*
D16*
X635000Y254000D02*
X629666Y248666D01*
X629666Y232391D01*
D15*
X490310Y195490D03*
D16*
X508000Y213642D01*
D15*
X508000Y213642D03*
X541809Y207491D03*
D16*
X584423Y253219D01*
D15*
X584423Y253219D03*
X679732Y228600D03*
D16*
X664706Y216904D01*
D15*
X664706Y216904D03*
X228600Y139700D03*
X406400Y165100D03*
D16*
X276015Y146474D02*
X228600Y139700D01*
X276015Y146474D02*
X204711Y222532D01*
X200687Y222532D01*
X197132Y226087D01*
X197132Y231114D01*
X200687Y234668D01*
X205714Y234668D01*
X275282Y165100D01*
X406400Y165100D01*
D15*
X457200Y165100D03*
D16*
X508000Y228600D01*
D15*
X508000Y228600D03*
X546100Y228600D03*
X539325Y184432D03*
D16*
X518187Y171732D02*
X514632Y175287D01*
X518187Y171732D02*
X523214Y171732D01*
X535914Y184432D02*
X539325Y184432D01*
X535914Y184432D02*
X523214Y171732D01*
X514632Y175287D02*
X514632Y188895D01*
X546100Y220363D02*
X546100Y228600D01*
X546100Y220363D02*
X514632Y188895D01*
D15*
X571795Y172430D03*
X636453Y154429D03*
D16*
X604780Y177518D02*
X599753Y177518D01*
X604780Y177518D02*
X608334Y173964D01*
X608334Y170853D01*
X627968Y156791D01*
X636453Y154429D01*
X594664Y172430D02*
X571795Y172430D01*
X594664Y172430D02*
X599753Y177518D01*
D15*
X658844Y164542D03*
X725904Y178350D03*
X711448Y152152D03*
D16*
X722884Y175330D02*
X725904Y178350D01*
X722884Y175330D02*
X722884Y167859D01*
X711448Y156423D01*
X711448Y152152D01*
D15*
X685800Y165100D03*
D16*
X658844Y164542D01*
D15*
X524510Y285750D03*
D16*
X524553Y247546D01*
X533460Y238639D01*
D15*
X533460Y238639D03*
X583846Y228954D03*
D16*
X558446Y203554D01*
D15*
X558446Y203554D03*
X544715Y291754D03*
D16*
X546100Y266700D01*
D15*
X546100Y266700D03*
D16*
X988194Y158079D02*
X1003300Y152400D01*
D15*
X1003300Y152400D03*
X1003300Y228600D03*
D16*
X983496Y154271D02*
X981189Y154271D01*
X973932Y199232D02*
X1003300Y228600D01*
X973932Y199232D02*
X973932Y161529D01*
X981189Y154271D01*
D15*
X686348Y189167D03*
X1039112Y292792D03*
D16*
X901700Y139700D01*
D15*
X901700Y139700D03*
D16*
X656816Y186147D02*
X654964Y184295D01*
X656816Y186147D02*
X683328Y186147D01*
X686348Y189167D01*
D15*
X639445Y182898D03*
D16*
X654964Y184295D01*
D15*
X495300Y170754D03*
D16*
X495300Y152400D01*
D15*
X495300Y152400D03*
X1003300Y419100D03*
X800100Y342900D03*
D16*
X985938Y419100D02*
X994184Y422192D01*
X994184Y422876D01*
X1022068Y391187D02*
X1018514Y387632D01*
X1013487Y387632D01*
X994184Y422876D02*
X999524Y428216D01*
X1007076Y428216D01*
X816919Y342900D02*
X800100Y342900D01*
X816919Y342900D02*
X893119Y419100D01*
X985938Y419100D01*
X1007076Y428216D02*
X1022068Y413224D01*
X1022068Y391187D01*
X1003300Y397819D02*
X1003300Y419100D01*
X1003300Y397819D02*
X1013487Y387632D01*
D15*
X1054100Y355600D03*
X825500Y92174D03*
D16*
X882368Y157706D02*
X1054100Y355600D01*
X828858Y95532D02*
X825500Y92174D01*
X882368Y111787D02*
X882368Y157706D01*
X882368Y111787D02*
X866114Y95532D01*
X828858Y95532D01*
X1003300Y139700D02*
X1026122Y175545D01*
X1003300Y139700D02*
X997372Y133772D01*
X997372Y124460D01*
X997372Y106816D01*
X996298Y124460D02*
X980668Y140089D01*
X996298Y124460D02*
X997372Y124460D01*
D15*
X165100Y228600D03*
X330200Y76200D03*
D16*
X226087Y133632D02*
X222532Y137187D01*
X222532Y171168D02*
X165100Y228600D01*
X272768Y133632D02*
X330200Y76200D01*
X222532Y137187D02*
X222532Y171168D01*
X226087Y133632D02*
X272768Y133632D01*
D15*
X391160Y101600D03*
D16*
X400050Y101600D01*
X482600Y444500D02*
X1092200Y431800D01*
D15*
X241300Y228600D03*
D16*
X478017Y440400D02*
X482600Y444500D01*
X478017Y440400D02*
X463362Y398840D01*
X461916Y394741D02*
X461197Y392700D01*
X458907Y391605D01*
X457150Y389773D01*
X454987Y389728D01*
X463362Y396186D02*
X463362Y398840D01*
X463362Y396186D02*
X461916Y394741D01*
X454987Y389728D02*
X454897Y389638D01*
X368357Y389638D02*
X349532Y370814D01*
X368357Y389638D02*
X454897Y389638D01*
X349532Y336832D02*
X241300Y228600D01*
X349532Y336832D02*
X349532Y370814D01*
D15*
X279400Y88900D03*
D16*
X317500Y76200D01*
D15*
X317500Y76200D03*
D16*
X1057177Y221660D02*
X1092200Y431800D01*
X1057177Y221660D02*
X1028700Y215900D01*
X1016000Y215900D01*
X986454Y191417D02*
X976980Y181944D01*
X986454Y191417D02*
X991517Y191417D01*
X1016000Y215900D01*
X988407Y166370D02*
X990702Y164075D01*
X988407Y166370D02*
X976980Y166370D01*
X976980Y181944D01*
D15*
X889000Y63500D03*
D16*
X736474Y101600D02*
X730250Y101600D01*
X736474Y101600D02*
X751968Y86106D01*
X866394Y86106D02*
X889000Y63500D01*
X866394Y86106D02*
X751968Y86106D01*
D15*
X203200Y228600D03*
D16*
X393700Y25400D01*
D15*
X393700Y25400D03*
X215900Y254000D03*
X419100Y406400D03*
D16*
X197132Y383514D02*
X197132Y378487D01*
X405386Y392686D02*
X419100Y406400D01*
X215900Y359719D02*
X215900Y254000D01*
X215900Y359719D02*
X197132Y378487D01*
X197132Y383514D02*
X206305Y392686D01*
X405386Y392686D01*
D15*
X609600Y63500D03*
X531494Y35616D03*
D16*
X588703Y63500D02*
X609600Y63500D01*
X588703Y63500D02*
X563839Y38636D01*
X534514Y38636D01*
X531494Y35616D01*
D15*
X1011614Y381000D03*
X832674Y339090D03*
D16*
X890688Y376871D02*
X901700Y381000D01*
X1011614Y381000D01*
X869780Y376196D02*
X832674Y339090D01*
X869780Y376196D02*
X890013Y376196D01*
X890688Y376871D01*
D15*
X299278Y218308D03*
D16*
X299720Y217866D01*
X299720Y201930D01*
D15*
X299720Y201930D03*
M02*
