G04 EAGLE Gerber RS-274X export*
G75*
%MOMM*%
%FSLAX34Y34*%
%LPD*%
%INSilkscreen Bottom*%
%IPPOS*%
%AMOC8*
5,1,8,0,0,1.08239X$1,22.5*%
G01*
%ADD10C,0.127000*%
%ADD11C,0.050800*%


D10*
X1041902Y169215D02*
X995775Y188510D01*
X966832Y119320D02*
X1012959Y100025D01*
X993845Y183898D02*
X995775Y188510D01*
X968761Y123933D02*
X966832Y119320D01*
D11*
X1018111Y199376D02*
X1020093Y204115D01*
X1018111Y199376D02*
X1018075Y199295D01*
X1018035Y199216D01*
X1017992Y199139D01*
X1017945Y199063D01*
X1017896Y198990D01*
X1017842Y198919D01*
X1017786Y198850D01*
X1017727Y198785D01*
X1017665Y198721D01*
X1017600Y198661D01*
X1017532Y198604D01*
X1017462Y198549D01*
X1017389Y198498D01*
X1017315Y198451D01*
X1017238Y198406D01*
X1017159Y198365D01*
X1017079Y198328D01*
X1016997Y198294D01*
X1016913Y198264D01*
X1016828Y198238D01*
X1016743Y198216D01*
X1016656Y198198D01*
X1016568Y198183D01*
X1016480Y198172D01*
X1016392Y198166D01*
X1016303Y198163D01*
X1016215Y198164D01*
X1016126Y198170D01*
X1016038Y198179D01*
X1015950Y198192D01*
X1015863Y198209D01*
X1015777Y198230D01*
X1015692Y198255D01*
X1015608Y198284D01*
X1015525Y198316D01*
X1015444Y198352D01*
X1015365Y198392D01*
X1015288Y198435D01*
X1015212Y198482D01*
X1015139Y198531D01*
X1015068Y198585D01*
X1014999Y198641D01*
X1014934Y198700D01*
X1014870Y198762D01*
X1014810Y198827D01*
X1014753Y198895D01*
X1014698Y198965D01*
X1014647Y199038D01*
X1014600Y199112D01*
X1014555Y199189D01*
X1014514Y199268D01*
X1014477Y199348D01*
X1014443Y199430D01*
X1014413Y199514D01*
X1014387Y199599D01*
X1014365Y199684D01*
X1014347Y199771D01*
X1014332Y199859D01*
X1014321Y199947D01*
X1014315Y200035D01*
X1014312Y200124D01*
X1014313Y200212D01*
X1014319Y200301D01*
X1014328Y200389D01*
X1014341Y200477D01*
X1014358Y200564D01*
X1014379Y200650D01*
X1014404Y200735D01*
X1014433Y200819D01*
X1014465Y200902D01*
X1014465Y200901D02*
X1016448Y205640D01*
X1012154Y207436D02*
X1009410Y200874D01*
X1010782Y204155D02*
X1011922Y204321D01*
X1011989Y204333D01*
X1012055Y204349D01*
X1012120Y204368D01*
X1012184Y204391D01*
X1012246Y204418D01*
X1012307Y204448D01*
X1012366Y204482D01*
X1012423Y204519D01*
X1012478Y204559D01*
X1012531Y204602D01*
X1012580Y204649D01*
X1012627Y204698D01*
X1012671Y204749D01*
X1012713Y204804D01*
X1012750Y204860D01*
X1012785Y204919D01*
X1012816Y204979D01*
X1012844Y205041D01*
X1012868Y205105D01*
X1012888Y205170D01*
X1012904Y205236D01*
X1012917Y205303D01*
X1012926Y205370D01*
X1012931Y205438D01*
X1012932Y205506D01*
X1012929Y205574D01*
X1012922Y205641D01*
X1012911Y205708D01*
X1012897Y205775D01*
X1012878Y205840D01*
X1012856Y205905D01*
X1012831Y205968D01*
X1012801Y206029D01*
X1012768Y206088D01*
X1012732Y206146D01*
X1012693Y206201D01*
X1012650Y206254D01*
X1012605Y206305D01*
X1012556Y206353D01*
X1012505Y206397D01*
X1012452Y206439D01*
X1012396Y206478D01*
X1012396Y206477D02*
X1012305Y206534D01*
X1012212Y206588D01*
X1012117Y206639D01*
X1012021Y206686D01*
X1011923Y206731D01*
X1011823Y206771D01*
X1011723Y206808D01*
X1011621Y206842D01*
X1011517Y206872D01*
X1011413Y206899D01*
X1011308Y206922D01*
X1011203Y206942D01*
X1011096Y206957D01*
X1010990Y206970D01*
X1010882Y206978D01*
X1010775Y206983D01*
X1010668Y206984D01*
X1010560Y206981D01*
X1010453Y206975D01*
X1010346Y206965D01*
X1010239Y206952D01*
X1010782Y204155D02*
X1009642Y203989D01*
X1009575Y203977D01*
X1009509Y203961D01*
X1009444Y203942D01*
X1009380Y203919D01*
X1009318Y203892D01*
X1009257Y203862D01*
X1009198Y203828D01*
X1009141Y203791D01*
X1009086Y203751D01*
X1009033Y203708D01*
X1008984Y203661D01*
X1008937Y203612D01*
X1008893Y203561D01*
X1008851Y203506D01*
X1008814Y203450D01*
X1008779Y203391D01*
X1008748Y203331D01*
X1008720Y203269D01*
X1008696Y203205D01*
X1008676Y203140D01*
X1008660Y203074D01*
X1008647Y203007D01*
X1008638Y202940D01*
X1008633Y202872D01*
X1008632Y202804D01*
X1008635Y202736D01*
X1008642Y202669D01*
X1008653Y202602D01*
X1008667Y202535D01*
X1008686Y202470D01*
X1008708Y202405D01*
X1008733Y202342D01*
X1008763Y202281D01*
X1008796Y202222D01*
X1008832Y202164D01*
X1008871Y202109D01*
X1008914Y202056D01*
X1008959Y202005D01*
X1009008Y201957D01*
X1009059Y201913D01*
X1009113Y201871D01*
X1009168Y201832D01*
X1009168Y201833D02*
X1009259Y201775D01*
X1009352Y201722D01*
X1009447Y201671D01*
X1009543Y201623D01*
X1009641Y201579D01*
X1009741Y201539D01*
X1009841Y201502D01*
X1009944Y201468D01*
X1010047Y201438D01*
X1010151Y201411D01*
X1010256Y201388D01*
X1010361Y201368D01*
X1010468Y201353D01*
X1010574Y201340D01*
X1010682Y201332D01*
X1010789Y201327D01*
X1010896Y201326D01*
X1011004Y201329D01*
X1011111Y201335D01*
X1011218Y201345D01*
X1011325Y201358D01*
X1007462Y207685D02*
X1006249Y209906D01*
X1003505Y203345D01*
X1005327Y202582D02*
X1001682Y204107D01*
M02*
