G04 EAGLE Gerber RS-274X export*
G75*
%MOMM*%
%FSLAX34Y34*%
%LPD*%
%INSoldermask Bottom*%
%IPPOS*%
%AMOC8*
5,1,8,0,0,1.08239X$1,22.5*%
G01*
%ADD10P,1.869504X8X22.500000*%
%ADD11C,1.524000*%
%ADD12R,1.953200X0.603200*%
%ADD13R,2.743200X2.743200*%
%ADD14C,1.253200*%
%ADD15C,1.524000*%
%ADD16C,0.959600*%


D10*
X749300Y203200D03*
X749300Y228600D03*
X774700Y203200D03*
X774700Y228600D03*
X800100Y203200D03*
X800100Y228600D03*
D11*
X471170Y228600D03*
X519430Y228600D03*
D12*
G36*
X972823Y146640D02*
X990841Y139103D01*
X988513Y133538D01*
X970495Y141075D01*
X972823Y146640D01*
G37*
G36*
X982857Y170626D02*
X1000875Y163089D01*
X998547Y157524D01*
X980529Y165061D01*
X982857Y170626D01*
G37*
G36*
X975332Y152637D02*
X993350Y145100D01*
X991022Y139535D01*
X973004Y147072D01*
X975332Y152637D01*
G37*
G36*
X977840Y158633D02*
X995858Y151096D01*
X993530Y145531D01*
X975512Y153068D01*
X977840Y158633D01*
G37*
G36*
X980349Y164630D02*
X998367Y157093D01*
X996039Y151528D01*
X978021Y159065D01*
X980349Y164630D01*
G37*
D13*
G36*
X1008176Y168185D02*
X1018762Y193491D01*
X1044068Y182905D01*
X1033482Y157599D01*
X1008176Y168185D01*
G37*
G36*
X979426Y99456D02*
X990012Y124762D01*
X1015318Y114176D01*
X1004732Y88870D01*
X979426Y99456D01*
G37*
D14*
X993152Y175245D03*
X974436Y130502D03*
D15*
X400050Y336296D02*
X400050Y349504D01*
X425450Y349504D02*
X425450Y336296D01*
X450850Y336296D02*
X450850Y349504D01*
X476250Y349504D02*
X476250Y336296D01*
X501650Y336296D02*
X501650Y349504D01*
X527050Y349504D02*
X527050Y336296D01*
X552450Y336296D02*
X552450Y349504D01*
X577850Y349504D02*
X577850Y336296D01*
X603250Y336296D02*
X603250Y349504D01*
X628650Y349504D02*
X628650Y336296D01*
X654050Y336296D02*
X654050Y349504D01*
X679450Y349504D02*
X679450Y336296D01*
X704850Y336296D02*
X704850Y349504D01*
X730250Y349504D02*
X730250Y336296D01*
X755650Y336296D02*
X755650Y349504D01*
X400050Y108204D02*
X400050Y94996D01*
X425450Y94996D02*
X425450Y108204D01*
X450850Y108204D02*
X450850Y94996D01*
X476250Y94996D02*
X476250Y108204D01*
X501650Y108204D02*
X501650Y94996D01*
X527050Y94996D02*
X527050Y108204D01*
X552450Y108204D02*
X552450Y94996D01*
X577850Y94996D02*
X577850Y108204D01*
X603250Y108204D02*
X603250Y94996D01*
X628650Y94996D02*
X628650Y108204D01*
X654050Y108204D02*
X654050Y94996D01*
X679450Y94996D02*
X679450Y108204D01*
X704850Y108204D02*
X704850Y94996D01*
X730250Y94996D02*
X730250Y108204D01*
X755650Y108204D02*
X755650Y94996D01*
D16*
X660400Y76200D03*
X960909Y313209D03*
X838200Y241300D03*
X825500Y228600D03*
X812800Y101600D03*
X620461Y53769D03*
X647700Y50800D03*
X711200Y61282D03*
X844680Y69568D03*
X825500Y70132D03*
X444500Y203200D03*
X645029Y116026D03*
X635000Y63500D03*
X645501Y86701D03*
X863600Y63500D03*
X736600Y63500D03*
X550104Y135544D03*
X558800Y50800D03*
X355600Y368300D03*
X533400Y63500D03*
X793722Y215900D03*
X444500Y266700D03*
X406400Y218254D03*
X419100Y177800D03*
X437360Y101600D03*
X508000Y35616D03*
X850900Y76200D03*
X850900Y101600D03*
X825500Y178350D03*
X800100Y178350D03*
X558800Y25400D03*
X647700Y172720D03*
X489740Y342900D03*
X600996Y161290D03*
X620279Y150708D03*
X711200Y215900D03*
X317500Y131386D03*
X876300Y178350D03*
X876300Y114300D03*
X456318Y267751D03*
X518463Y266698D03*
X816074Y254000D03*
X800100Y254000D03*
X914400Y215900D03*
X990600Y292100D03*
X508000Y170754D03*
X463820Y151836D03*
X571500Y63500D03*
X543901Y86701D03*
X571500Y152400D03*
X411960Y101600D03*
X924895Y330200D03*
X887730Y405130D03*
X1010920Y398780D03*
X787400Y114300D03*
X514287Y349313D03*
X790674Y139700D03*
X711200Y139700D03*
X673100Y139700D03*
X560960Y367566D03*
X787400Y127000D03*
X825500Y38100D03*
X812800Y92174D03*
X1053046Y203561D03*
X621030Y204470D03*
X723900Y76200D03*
X633730Y204470D03*
X723900Y152400D03*
X698500Y177800D03*
X698500Y215900D03*
X600046Y33989D03*
X647700Y203200D03*
X279400Y254000D03*
X417700Y316133D03*
X469900Y317500D03*
X571782Y290978D03*
X596900Y303580D03*
X660400Y304800D03*
X670869Y239069D03*
X685800Y254000D03*
X646712Y248725D03*
X622300Y233606D03*
X632366Y188671D03*
X711200Y228600D03*
X568033Y244531D03*
X617946Y359954D03*
X742160Y340005D03*
X543714Y167486D03*
X571500Y190500D03*
X616740Y95888D03*
X598456Y197895D03*
X592594Y216904D03*
X729674Y381000D03*
X812800Y425732D03*
X639559Y264894D03*
X698500Y292100D03*
X591340Y101600D03*
X623996Y279400D03*
X520700Y177800D03*
X558800Y139700D03*
X571500Y139700D03*
X571500Y114300D03*
X610870Y104140D03*
X594701Y116499D03*
X584200Y127000D03*
X598456Y152400D03*
X602266Y171450D03*
X707672Y88900D03*
X406400Y139700D03*
X419100Y203200D03*
X419100Y228600D03*
X611044Y188501D03*
X736600Y215900D03*
X604573Y282288D03*
X594718Y274019D03*
X698500Y165100D03*
X711200Y190500D03*
X562412Y190357D03*
X660400Y267942D03*
X977900Y304800D03*
X965200Y279400D03*
X952500Y266700D03*
X863600Y215900D03*
X749300Y254000D03*
X965200Y355600D03*
X786832Y381000D03*
X849128Y383691D03*
X490310Y195490D03*
X508000Y213642D03*
X541809Y207491D03*
X584423Y253219D03*
X679732Y228600D03*
X664706Y216904D03*
X228600Y139700D03*
X406400Y165100D03*
X457200Y165100D03*
X508000Y228600D03*
X546100Y228600D03*
X539325Y184432D03*
X571795Y172430D03*
X636453Y154429D03*
X658844Y164542D03*
X725904Y178350D03*
X711448Y152152D03*
X685800Y165100D03*
X524510Y285750D03*
X533460Y238639D03*
X583846Y228954D03*
X558446Y203554D03*
X544715Y291754D03*
X546100Y266700D03*
X1003300Y152400D03*
X1003300Y228600D03*
X686348Y189167D03*
X1039112Y292792D03*
X901700Y139700D03*
X639445Y182898D03*
X495300Y170754D03*
X495300Y152400D03*
X1003300Y419100D03*
X800100Y342900D03*
X1054100Y355600D03*
X825500Y92174D03*
X165100Y228600D03*
X330200Y76200D03*
X391160Y101600D03*
X241300Y228600D03*
X279400Y88900D03*
X317500Y76200D03*
X889000Y63500D03*
X203200Y228600D03*
X393700Y25400D03*
X215900Y254000D03*
X419100Y406400D03*
X609600Y63500D03*
X531494Y35616D03*
X1011614Y381000D03*
X832674Y339090D03*
X299278Y218308D03*
X299720Y201930D03*
M02*
