G04 EAGLE Gerber RS-274X export*
G75*
%MOMM*%
%FSLAX34Y34*%
%LPD*%
%INSolderpaste Top*%
%IPPOS*%
%AMOC8*
5,1,8,0,0,1.08239X$1,22.5*%
G01*
%ADD10R,1.600000X2.700000*%
%ADD11R,2.700000X1.600000*%
%ADD12R,0.630000X0.830000*%
%ADD13R,0.800000X0.800000*%
%ADD14R,0.800000X0.800000*%
%ADD15R,2.000000X1.600000*%
%ADD16R,1.600000X2.000000*%
%ADD17R,0.800000X1.700000*%
%ADD18R,1.500000X0.550000*%
%ADD19R,0.550000X1.500000*%
%ADD20R,0.348000X1.397000*%
%ADD21C,0.254000*%
%ADD22R,0.482600X0.482600*%
%ADD23R,1.219200X2.235200*%
%ADD24R,3.600000X2.200000*%


D10*
X801400Y44450D03*
X773400Y44450D03*
X138400Y50800D03*
X166400Y50800D03*
X87600Y127000D03*
X115600Y127000D03*
X862300Y44450D03*
X890300Y44450D03*
X544800Y40057D03*
X572800Y40057D03*
D11*
X241300Y214600D03*
X241300Y242600D03*
D10*
G36*
X252139Y78155D02*
X265825Y86443D01*
X279811Y63349D01*
X266125Y55061D01*
X252139Y78155D01*
G37*
G36*
X228189Y63651D02*
X241875Y71939D01*
X255861Y48845D01*
X242175Y40557D01*
X228189Y63651D01*
G37*
D12*
X407600Y152400D03*
X430600Y152400D03*
D13*
X538600Y279400D03*
X553600Y279400D03*
X114300Y271900D03*
X114300Y286900D03*
X500500Y279400D03*
X515500Y279400D03*
X462400Y279400D03*
X477400Y279400D03*
X480180Y307340D03*
X495180Y307340D03*
X538600Y431800D03*
X553600Y431800D03*
X716400Y431800D03*
X731400Y431800D03*
D14*
G36*
X1051166Y283832D02*
X1053277Y291547D01*
X1060992Y289436D01*
X1058881Y281721D01*
X1051166Y283832D01*
G37*
G36*
X1047208Y269364D02*
X1049319Y277079D01*
X1057034Y274968D01*
X1054923Y267253D01*
X1047208Y269364D01*
G37*
D13*
X614800Y40057D03*
X629800Y40057D03*
X398900Y40057D03*
X413900Y40057D03*
D15*
X317500Y341600D03*
X317500Y369600D03*
D16*
X532100Y304800D03*
X560100Y304800D03*
X481300Y152400D03*
X509300Y152400D03*
X1083340Y410210D03*
X1055340Y410210D03*
D15*
X317500Y201900D03*
X317500Y229900D03*
D17*
X808500Y304800D03*
X842500Y304800D03*
D18*
X671650Y149800D03*
X671650Y157800D03*
X671650Y165800D03*
X671650Y173800D03*
X671650Y181800D03*
X671650Y189800D03*
X671650Y197800D03*
X671650Y205800D03*
D19*
X656650Y220800D03*
X648650Y220800D03*
X640650Y220800D03*
X632650Y220800D03*
X624650Y220800D03*
X616650Y220800D03*
X608650Y220800D03*
X600650Y220800D03*
D18*
X585650Y205800D03*
X585650Y197800D03*
X585650Y189800D03*
X585650Y181800D03*
X585650Y173800D03*
X585650Y165800D03*
X585650Y157800D03*
X585650Y149800D03*
D19*
X600650Y134800D03*
X608650Y134800D03*
X616650Y134800D03*
X624650Y134800D03*
X632650Y134800D03*
X640650Y134800D03*
X648650Y134800D03*
X656650Y134800D03*
D20*
G36*
X1021391Y324870D02*
X1022501Y328169D01*
X1035741Y323714D01*
X1034631Y320415D01*
X1021391Y324870D01*
G37*
G36*
X1019318Y318710D02*
X1020428Y322009D01*
X1033668Y317554D01*
X1032558Y314255D01*
X1019318Y318710D01*
G37*
G36*
X1017245Y312549D02*
X1018355Y315848D01*
X1031595Y311393D01*
X1030485Y308094D01*
X1017245Y312549D01*
G37*
G36*
X1015172Y306389D02*
X1016282Y309688D01*
X1029522Y305233D01*
X1028412Y301934D01*
X1015172Y306389D01*
G37*
G36*
X1013099Y300228D02*
X1014209Y303527D01*
X1027449Y299072D01*
X1026339Y295773D01*
X1013099Y300228D01*
G37*
G36*
X1011025Y294068D02*
X1012135Y297367D01*
X1025375Y292912D01*
X1024265Y289613D01*
X1011025Y294068D01*
G37*
G36*
X1008952Y287907D02*
X1010062Y291206D01*
X1023302Y286751D01*
X1022192Y283452D01*
X1008952Y287907D01*
G37*
G36*
X1004806Y275586D02*
X1005916Y278885D01*
X1019156Y274430D01*
X1018046Y271131D01*
X1004806Y275586D01*
G37*
G36*
X1006879Y281747D02*
X1007989Y285046D01*
X1021229Y280591D01*
X1020119Y277292D01*
X1006879Y281747D01*
G37*
G36*
X1002732Y269426D02*
X1003842Y272725D01*
X1017082Y268270D01*
X1015972Y264971D01*
X1002732Y269426D01*
G37*
G36*
X1000659Y263265D02*
X1001769Y266564D01*
X1015009Y262109D01*
X1013899Y258810D01*
X1000659Y263265D01*
G37*
G36*
X998586Y257105D02*
X999696Y260404D01*
X1012936Y255949D01*
X1011826Y252650D01*
X998586Y257105D01*
G37*
G36*
X996513Y250944D02*
X997623Y254243D01*
X1010863Y249788D01*
X1009753Y246489D01*
X996513Y250944D01*
G37*
G36*
X994439Y244784D02*
X995549Y248083D01*
X1008789Y243628D01*
X1007679Y240329D01*
X994439Y244784D01*
G37*
G36*
X952091Y348192D02*
X953201Y351491D01*
X966441Y347036D01*
X965331Y343737D01*
X952091Y348192D01*
G37*
G36*
X950017Y342032D02*
X951127Y345331D01*
X964367Y340876D01*
X963257Y337577D01*
X950017Y342032D01*
G37*
G36*
X947944Y335871D02*
X949054Y339170D01*
X962294Y334715D01*
X961184Y331416D01*
X947944Y335871D01*
G37*
G36*
X945871Y329711D02*
X946981Y333010D01*
X960221Y328555D01*
X959111Y325256D01*
X945871Y329711D01*
G37*
G36*
X943798Y323550D02*
X944908Y326849D01*
X958148Y322394D01*
X957038Y319095D01*
X943798Y323550D01*
G37*
G36*
X941724Y317390D02*
X942834Y320689D01*
X956074Y316234D01*
X954964Y312935D01*
X941724Y317390D01*
G37*
G36*
X939651Y311229D02*
X940761Y314528D01*
X954001Y310073D01*
X952891Y306774D01*
X939651Y311229D01*
G37*
G36*
X937578Y305069D02*
X938688Y308368D01*
X951928Y303913D01*
X950818Y300614D01*
X937578Y305069D01*
G37*
G36*
X935505Y298908D02*
X936615Y302207D01*
X949855Y297752D01*
X948745Y294453D01*
X935505Y298908D01*
G37*
G36*
X933431Y292748D02*
X934541Y296047D01*
X947781Y291592D01*
X946671Y288293D01*
X933431Y292748D01*
G37*
G36*
X931358Y286587D02*
X932468Y289886D01*
X945708Y285431D01*
X944598Y282132D01*
X931358Y286587D01*
G37*
G36*
X929285Y280427D02*
X930395Y283726D01*
X943635Y279271D01*
X942525Y275972D01*
X929285Y280427D01*
G37*
G36*
X927212Y274266D02*
X928322Y277565D01*
X941562Y273110D01*
X940452Y269811D01*
X927212Y274266D01*
G37*
G36*
X925139Y268106D02*
X926249Y271405D01*
X939489Y266950D01*
X938379Y263651D01*
X925139Y268106D01*
G37*
D15*
X165100Y214600D03*
X165100Y242600D03*
D21*
X805213Y403086D02*
X805213Y410706D01*
X810259Y410706D02*
X810259Y403086D01*
X815305Y403086D02*
X815305Y410706D01*
X820655Y410706D02*
X820655Y403086D01*
X825676Y403086D02*
X825676Y410706D01*
X830747Y410706D02*
X830747Y403086D01*
X805213Y368674D02*
X805213Y361054D01*
X810259Y361054D02*
X810259Y368674D01*
X815305Y368674D02*
X815305Y361054D01*
X820655Y361054D02*
X820655Y368674D01*
X825676Y368674D02*
X825676Y361054D01*
X830747Y361054D02*
X830747Y368674D01*
X834932Y373113D02*
X842552Y373113D01*
X842552Y378159D02*
X834932Y378159D01*
X834932Y383205D02*
X842552Y383205D01*
X842552Y388555D02*
X834932Y388555D01*
X834932Y393576D02*
X842552Y393576D01*
X842552Y398647D02*
X834932Y398647D01*
X801028Y373113D02*
X793408Y373113D01*
X793408Y378159D02*
X801028Y378159D01*
X801028Y383205D02*
X793408Y383205D01*
X793408Y388555D02*
X801028Y388555D01*
X801028Y393576D02*
X793408Y393576D01*
X793408Y398647D02*
X801028Y398647D01*
D22*
X811911Y391795D03*
X824611Y391795D03*
X812038Y379730D03*
X824230Y379730D03*
D10*
X996920Y389890D03*
X1024920Y389890D03*
X873095Y411480D03*
X901095Y411480D03*
D16*
X714980Y385880D03*
X742980Y385880D03*
X650210Y385880D03*
X678210Y385880D03*
D10*
X873095Y342900D03*
X901095Y342900D03*
D23*
X167386Y324612D03*
X190500Y324612D03*
X213614Y324612D03*
D24*
X190500Y386590D03*
M02*
